<svg xmlns="http://www.w3.org/2000/svg" viewBox="0 0 64 64" fill="none">
  <defs>
    <linearGradient id="shieldGrad" x1="32" y1="12" x2="32" y2="60" gradientUnits="userSpaceOnUse">
      <stop offset="0%" stop-color="#2BA88C"/>
      <stop offset="100%" stop-color="#3AACDB"/>
    </linearGradient>
    <linearGradient id="cloudGrad" x1="20" y1="8" x2="48" y2="28" gradientUnits="userSpaceOnUse">
      <stop offset="0%" stop-color="#1B8E6B"/>
      <stop offset="100%" stop-color="#4CBBA0"/>
    </linearGradient>
  </defs>
  <!-- Shield body -->
  <path d="M32 58 C32 58 14 44 14 28V18L32 12L50 18V28C50 44 32 58 32 58Z" fill="url(#shieldGrad)"/>
  <!-- Cloud on top -->
  <path d="M22 22C22 17.6 25.6 14 30 14C33.2 14 35.9 16 37 18.7C37.9 18.3 38.9 18 40 18C43.3 18 46 20.7 46 24C46 24.3 46 24.7 45.9 25H46C48.2 25 50 26.8 50 29C50 31.2 48.2 33 46 33H22C19.8 33 18 31.2 18 29C18 26.8 19.8 25 22 25V22Z" fill="url(#cloudGrad)"/>
  <!-- Keyhole -->
  <circle cx="32" cy="40" r="4" fill="white"/>
  <rect x="30" y="43" width="4" height="7" rx="2" fill="white"/>
</svg>
